<?xml version="1.0" standalone="no"?>
<!DOCTYPE svg PUBLIC "-//W3C//DTD SVG 20010904//EN"
 "http://www.w3.org/TR/2001/REC-SVG-20010904/DTD/svg10.dtd">
<svg version="1.0" xmlns="http://www.w3.org/2000/svg"
 width="1274.000000pt" height="1280.000000pt" viewBox="0 0 1274.000000 1280.000000"
 preserveAspectRatio="xMidYMid meet">
<g transform="translate(0.000000,1280.000000) scale(0.100000,-0.100000)"
fill="#000000" stroke="none">
<path d="M3421 12782 c-98 -33 -161 -132 -147 -231 8 -61 32 -95 125 -179 145
-131 251 -296 286 -444 8 -35 15 -111 15 -169 0 -251 -106 -492 -369 -839
-233 -308 -346 -504 -421 -729 -59 -174 -73 -276 -67 -461 4 -124 10 -173 31
-246 57 -205 160 -376 336 -558 134 -137 191 -176 265 -176 156 1 260 165 189
300 -7 14 -60 72 -118 128 -287 283 -356 535 -240 881 60 181 170 369 356 606
228 292 373 577 434 850 24 110 29 323 11 430 -45 255 -163 471 -375 683 -90
91 -126 120 -177 143 -72 32 -73 32 -134 11z"/>
<path d="M6026 12780 c-90 -35 -146 -112 -146 -200 0 -69 29 -118 114 -193
154 -139 265 -309 302 -464 22 -96 15 -286 -15 -391 -55 -190 -152 -362 -366
-647 -159 -212 -221 -307 -294 -452 -292 -578 -218 -1097 219 -1530 122 -121
158 -145 224 -151 92 -7 167 32 205 107 28 56 33 101 16 158 -13 43 -28 63
-93 123 -158 147 -250 277 -299 425 -22 69 -26 98 -27 205 0 107 4 140 27 225
55 198 160 383 388 685 69 91 149 203 178 250 114 184 208 409 247 590 24 112
25 373 1 475 -55 242 -175 447 -381 649 -139 137 -213 170 -300 136z"/>
<path d="M8636 12780 c-90 -35 -146 -112 -146 -200 0 -70 29 -118 114 -195
444 -397 421 -860 -73 -1490 -253 -322 -408 -630 -456 -906 -22 -121 -22 -328
-1 -429 57 -265 203 -509 427 -709 88 -79 129 -101 191 -101 123 0 208 84 208
205 0 76 -25 120 -111 196 -88 79 -187 201 -233 288 -123 237 -111 493 39 790
70 140 115 210 274 421 80 107 181 253 223 324 321 539 328 1039 20 1469 -80
113 -258 289 -324 321 -75 36 -97 38 -152 16z"/>
<path d="M5520 8064 c-102 -2 -808 -8 -1570 -13 -762 -6 -1604 -14 -1872 -17
l-488 -7 0 -56 c0 -72 15 -247 41 -476 98 -881 338 -2073 624 -3100 402 -1445
855 -2485 1277 -2937 l54 -58 2638 0 2637 0 30 33 c47 50 132 183 183 284 96
192 180 423 296 808 40 132 74 242 75 244 2 1 115 40 252 86 768 255 1367 563
1880 965 59 47 194 170 299 275 263 262 413 466 545 740 381 788 177 1589
-523 2058 -219 146 -520 267 -810 326 -177 35 -181 39 -186 169 -4 89 4 135
63 392 28 119 38 252 20 268 -9 8 -4953 22 -5465 16z m5704 -1459 c353 -53
595 -259 690 -587 145 -499 -79 -1165 -549 -1633 -326 -325 -742 -523 -1210
-575 -112 -12 -355 -13 -374 -1 -19 12 -12 36 81 281 92 242 131 362 299 925
388 1298 470 1538 531 1565 36 16 223 38 333 39 55 0 144 -6 199 -14z"/>
<path d="M20 1284 c0 -19 92 -170 145 -240 69 -89 255 -270 358 -348 354 -264
836 -484 1428 -648 l154 -43 4280 0 4280 0 140 38 c429 115 684 210 999 370
354 180 631 401 799 636 63 88 124 197 116 205 -3 3 -349 2 -770 -4 -420 -5
-1169 -14 -1664 -20 -495 -5 -1303 -15 -1795 -21 -1192 -15 -2175 -16 -3025
-1 -803 14 -1651 27 -2640 42 -379 6 -962 15 -1295 20 -1340 21 -1510 23
-1510 14z"/>
</g>
</svg>
